<svg xmlns="http://www.w3.org/2000/svg" width="183" height="25">
  <path fill="#fff" d="M9.5 9c1.8-.6 3.1-1.9 3.1-4C12.6 1.7 9.8.5 7 .5H0v18.1h6.5c3.5 0 6.9-1.2 6.9-5.2 0-2.2-1.7-4.1-3.9-4.4zM3.2 3.2h2.7c2.4 0 3.5.8 3.5 2.4 0 1.3-1.1 2.2-3.2 2.2h-3V3.2zm3 12.6h-3v-5.2h3.1c2.6 0 3.9.7 3.9 2.6 0 2.4-2.3 2.6-4 2.6zM27.3 6c-3.7 0-6.7 2.6-6.7 6.5 0 3.8 3 6.4 6.7 6.4s6.7-2.6 6.7-6.4C34 8.6 31 6 27.3 6zm0 10.2c-1.5 0-2.8-.9-3.4-2.3-.6-1.3-.3-2.9.7-4 1.1-1.1 2.6-1.4 4-.8 1.4.5 2.3 1.9 2.3 3.4.1.9-.3 1.9-1 2.6-.7.7-1.6 1.1-2.6 1.1zM42.1 6c-3.8 0-6.7 2.6-6.7 6.5 0 3.8 2.9 6.4 6.7 6.4 3.7 0 6.6-2.6 6.6-6.4 0-3.9-2.9-6.5-6.6-6.5zm0 10.2c-1.5 0-2.9-.9-3.5-2.3-.6-1.3-.3-2.9.7-4 1.1-1.1 2.7-1.4 4.1-.8 1.4.5 2.3 1.9 2.3 3.4 0 .9-.4 1.9-1 2.6-.7.7-1.7 1.1-2.6 1.1zm27.6-4.9v7.3h-3.1v-7c0-1.5-.5-2.8-2.3-2.8-1.9 0-2.6 1.6-2.6 3.1v6.7h-3.1v-7.3c0-1.5-.6-2.5-2.1-2.5-2 0-2.8 1.5-2.8 3.1v6.7h-3.1V6.3h3v1.9c.7-1.4 2.2-2.3 3.8-2.2 1.9 0 3.2.7 3.8 2.3.8-1.5 2.4-2.4 4.1-2.3 3.2 0 4.4 2.3 4.4 5.3zM79.5 6c-1.6-.1-3.2.6-4.2 1.9h-.1V.1h-3v18.5h2.9v-1.8c1 1.4 2.6 2.2 4.3 2.1 3.7 0 6-2.8 6-6.4C85.4 8.8 83 6 79.5 6zm-.8 10.2c-1.5 0-2.8-.9-3.4-2.3-.6-1.3-.3-2.9.7-4 1.1-1.1 2.7-1.4 4-.8 1.4.5 2.3 1.9 2.3 3.4.1.9-.3 1.9-1 2.6-.7.7-1.6 1.1-2.6 1.1zM93.5 6c-3.7 0-6.7 2.6-6.7 6.5 0 3.8 3 6.4 6.7 6.4 2 .1 3.9-.9 5.2-2.5l-2.2-1.6c-.8 1-2 1.7-3.3 1.6-1.7.1-3.2-1.2-3.3-2.9h9.3v-.8c0-4.3-2.3-6.7-5.7-6.7zm-3.6 5.2c.2-1.8 1.3-2.9 3.1-2.9 2 0 3.1 1.1 3.2 2.9h-6.3zM108 6c.4 0 .7.1 1.1.2v3c-.5-.2-1-.3-1.5-.3-.8 0-1.7.3-2.3.9-.6.5-1 1.4-1 2.2v6.6h-3.1V6.3h3.1v2h.1C105 6.8 106.5 6 108 6zm11.9.3v1.9h-.1c-.9-1.5-2.5-2.2-4.2-2.2-3.8 0-6.1 2.8-6.1 6.5 0 3.4 2.5 6.3 6.1 6.3 1.6 0 3.1-.7 4.1-1.8v.9c0 2.4-.9 4.1-3.9 4.1-1.6 0-3.1-.7-4.2-1.8l-1.8 2.5c1.7 1.6 3.8 2 6.1 2 4.7 0 6.9-2.8 6.9-7.2V6.3h-2.9zm-3.7 9.7c-.9 0-1.9-.4-2.5-1-.7-.7-1.1-1.6-1.1-2.6s.3-1.9 1-2.6c.7-.7 1.7-1.1 2.7-1 .9-.1 1.9.3 2.6 1 .7.7 1.1 1.6 1 2.6.1 1-.3 1.9-1 2.6-.7.7-1.7 1.1-2.6 1h-.1zm-97.6 2.6h-3.1V0h3.1v18.6zM133.833 0h3.2v15.2h7.7V18h-10.9zm21 16.5h-.1c-.4.6-.9 1-1.5 1.3-.7.4-1.5.5-2.3.5-.5 0-1.1 0-1.6-.2-.5-.1-1-.3-1.5-.6-.4-.3-.8-.7-1.1-1.2-.3-.5-.4-1.1-.4-1.8-.1-.8.2-1.6.8-2.2.5-.5 1.2-.9 2-1.2.9-.3 1.8-.5 2.7-.6 1-.1 2-.1 2.9-.1v-.3c0-.7-.3-1.3-.8-1.7-.6-.4-1.3-.6-2-.5-.6 0-1.3.1-1.9.4-.5.2-1 .6-1.4 1l-1.6-1.9c.7-.6 1.5-1.1 2.4-1.4.9-.4 1.8-.5 2.8-.5.9-.1 1.8.1 2.7.4.6.3 1.2.7 1.6 1.2.4.5.7 1.1.9 1.7.1.6.2 1.2.2 1.8V18h-2.8v-1.5zm-.1-4h-2.2c-.6.1-1.1.1-1.5.3-.5.1-.9.3-1.2.6-.3.3-.5.7-.5 1.1 0 .2.1.5.2.7.2.2.3.4.6.5.2.1.4.2.6.2.3.1.5.1.8.1.9.1 1.7-.2 2.4-.8.6-.6.9-1.4.8-2.3v-.4zm3.7-6.7h3.3l2.6 8.8 2.6-8.8h3.3l2.6 8.8h.1l2.6-8.8h3.2l-4.3 12.2h-3.1l-2.8-8.5-2.8 8.5h-3.1zM182.4 7.1c0 .5-.3 1-.8 1.2-.5.3-1.1.2-1.5-.2-.4-.4-.5-1-.3-1.5s.7-.8 1.2-.8c.4 0 .7.1 1 .3.2.3.4.6.4 1zm-2.4 0c0 .3.1.5.3.7.2.2.5.3.7.3.5 0 .9-.2 1-.6.2-.4.1-.8-.2-1.1-.3-.4-.7-.4-1.1-.3-.4.2-.7.6-.7 1zm.8.7h-.3V6.5c.2-.1.4-.1.5-.1.2 0 .4 0 .5.1.1.1.1.2.1.3 0 .2-.1.3-.2.3.1.1.2.2.2.3 0 .1 0 .2.1.3h-.3c-.1-.1-.1-.2-.1-.3 0-.1-.1-.2-.3-.2h-.2v.6zm0-.8h.2c.1 0 .3 0 .3-.2 0-.1-.1-.2-.3-.2h-.2V7z"/>
</svg>
